<?xml version="1.0" encoding="utf-8"?>
<!-- Generator: Adobe Illustrator 26.0.3, SVG Export Plug-In . SVG Version: 6.00 Build 0)  -->
<svg version="1.1" id="Layer_1" xmlns="http://www.w3.org/2000/svg" xmlns:xlink="http://www.w3.org/1999/xlink" x="0px" y="0px"
	 viewBox="0 0 800 798.8" style="enable-background:new 0 0 800 798.8;" xml:space="preserve">
<style type="text/css">
	.st0{fill:#767676;}
</style>
<g id="Layer_2_00000016053011137716245110000011578119311817138358_">
	<g id="Layer_1-2">
		<g id="Layer_2-2">
			<g id="Layer_1-2-2">
				<path class="st0" d="M473.8,342.4c9.3-4.3,18.5-8.7,27.9-12.8c6.2-2.7,12.7-4,19.4-4.6c10.3-1,20.8,0,30.7,2.9
					c9.8,2.9,18.8,7.8,26.8,14.2c7.9,6.2,14.8,13.7,20.4,22.1c7.9,11.8,13,25.3,14.8,39.4c2,14.7,1.4,29.3-2.3,43.7
					c-2.5,9.9-6.7,19.3-12.4,27.8c-8.8,12.9-19.8,23.6-33.4,31.4c-10.6,6.1-22.3,9.9-34.4,11.2c-12.4,1.5-24.9,0.6-36.9-2.7
					c-13.3-3.7-26-9.4-37.5-17c-9.5-6.1-18.1-13.2-25.6-21.7c-6.3-7.1-11.6-14.9-16.7-22.9c-3.7-5.7-7.2-11.5-10.7-17.3
					c-0.4,0.1-0.2,0.4-0.2,0.6c0.3,12.2,1.2,24.3,2.8,36.4c2.4,16.9,6.2,33.4,13.4,48.9c4.4,9.4,9.9,18.3,16.5,26.3
					c8.6,10.5,18.7,19.7,29.9,27.3c11.1,7.7,23.7,12,36.4,16c13.6,4.2,27.6,7.3,41.6,10c1.2,0.2,1.8,0.6,2,1.9
					c0.6,3.1,1.4,6.1,2.1,9.2c0.2,0.8,0.1,1.2-0.8,1.1c-0.3,0-0.6,0-0.9,0H255c-0.2,0-0.4,0-0.6,0c-1.1,0.2-1.4-0.2-1.1-1.3
					c0.8-3,1.5-6,2.2-9c0.1-0.9,0.8-1.7,1.8-1.8c12.3-2.7,24.5-5.4,36.6-8.9c9.8-2.8,19.6-5.8,28.9-10c8.9-4,16.7-9.5,24-15.8
					c11.1-9.8,20-21.3,27.5-34.1c9.6-16.4,16.3-34.4,19.7-53.1c1.9-10.6,2.7-21.4,2.4-32.2c-0.1-3.3-0.1-6.7-0.2-10
					c0.1-0.5,0-1-0.3-1.4c-1.6,3.1-3.2,6.2-4.9,9.2c-5.2,9.5-11.3,18.6-18.1,27.1c-13.5,16.9-31.2,30-51.2,38.1
					c-8.3,3.4-16.9,5.7-25.7,7c-8.4,1.1-16.9,1.3-25.3,0.3c-12-1.2-23.6-4.7-34.3-10.4c-8.9-4.8-16.9-10.9-24-18.2
					c-7.3-7.3-13.3-15.7-17.8-24.9c-4.1-8.5-6.9-17.6-8.3-27c-2.2-14.7-1.5-29.7,2.1-44.2c4.2-16.4,12.6-30.4,24.3-42.5
					c6.5-6.6,13.6-12.4,21.7-16.9c8.3-4.5,17.4-7.4,26.8-8.5c12.1-1.4,23.7,1,35.2,4.8c9.4,3.2,18.6,7,27.4,11.4
					c0.7,0.4,1.4,0.6,2.1,0.7l-1.4-2.4c-5.1-8.5-10-17.1-14.2-26.1c-5.3-11.6-7.9-24.2-7.4-37c0.2-7.8,1.2-15.6,3.1-23.2
					c3.3-12.9,9.6-24.9,18.2-35.1c12.5-14.8,27.9-25.2,46.6-30.4c10.1-2.7,20.5-4,30.9-3.7c10.2,0.1,20.3,1.8,30,4.9
					c12.2,4.1,23.5,10.6,33.1,19.2c7.8,6.9,14.5,14.9,19.8,23.9c5.9,10.2,9.7,21.5,11,33.2c0.6,5.4,0.9,10.8,0.6,16.1
					c-0.4,7.5-1.7,14.9-4,22c-4.1,13.2-10.6,25.3-18.4,36.7c-0.3,0.4-0.5,0.8-0.8,1.2C473.1,342.6,473.4,342.6,473.8,342.4z"/>
			</g>
		</g>
	</g>
</g>
</svg>
